<svg width="27" height="27" viewBox="0 0 27 27" fill="none" xmlns="http://www.w3.org/2000/svg">
<path d="M13.5038 20.2043C13.2168 20.3955 12.9177 20.5678 12.6084 20.7203V25.1425C12.6084 25.3799 12.7027 25.6077 12.8707 25.7756C13.0386 25.9435 13.2663 26.0379 13.5038 26.0379C13.7413 26.0379 13.969 25.9435 14.1369 25.7756C14.3049 25.6077 14.3992 25.3799 14.3992 25.1425V20.7203C14.0899 20.5678 13.7908 20.3955 13.5038 20.2043Z" fill="#00DC82"/>
<path d="M21.3562 6.18236C20.7085 4.63582 19.6181 3.31521 18.2222 2.38643C16.8262 1.45765 15.1869 0.962132 13.5103 0.962132C11.8336 0.962132 10.1943 1.45765 8.79831 2.38643C7.40236 3.31521 6.31203 4.63582 5.6643 6.18236C4.27051 6.8281 3.08934 7.85726 2.25888 9.14954C1.42842 10.4418 0.982979 11.9438 0.974642 13.4799C0.96233 17.8248 4.48461 21.4489 8.82507 21.5609C10.1381 21.5951 11.4394 21.3065 12.6149 20.7203V16.7414L7.73716 14.3036C7.52462 14.1974 7.363 14.011 7.28785 13.7856C7.21271 13.5602 7.23019 13.3141 7.33646 13.1016C7.44273 12.889 7.62908 12.7274 7.85452 12.6523C8.07995 12.5771 8.326 12.5946 8.53854 12.7009L12.6149 14.7401V9.02525C12.6149 8.78778 12.7092 8.56003 12.8771 8.39211C13.045 8.22419 13.2728 8.12985 13.5103 8.12985C13.7477 8.12985 13.9755 8.22419 14.1434 8.39211C14.3113 8.56003 14.4057 8.78778 14.4057 9.02525V12.0539L18.482 10.0147C18.5872 9.96205 18.7018 9.93068 18.8191 9.92233C18.9365 9.91399 19.0544 9.92885 19.166 9.96606C19.2776 10.0033 19.3808 10.0621 19.4697 10.1392C19.5586 10.2163 19.6314 10.3101 19.684 10.4154C19.7367 10.5206 19.768 10.6352 19.7764 10.7525C19.7847 10.8699 19.7699 10.9878 19.7327 11.0994C19.6954 11.211 19.6366 11.3142 19.5595 11.4031C19.4824 11.492 19.3886 11.5648 19.2834 11.6174L14.4057 14.0552V20.7203C15.518 21.275 16.7443 21.5628 17.9873 21.5609H18.1954C22.5359 21.4489 26.0582 17.827 26.0459 13.4821C26.0384 11.9456 25.5933 10.4429 24.7627 9.15015C23.9322 7.85736 22.7506 6.82793 21.3562 6.18236Z" fill="#00DC82"/>
</svg>
