<svg width="20" height="21" viewBox="0 0 20 21" fill="none" xmlns="http://www.w3.org/2000/svg">
<path d="M4.16669 8.6825C4.16669 12.9278 7.70375 16.4386 9.26934 17.7846C9.49341 17.9772 9.60678 18.0747 9.77394 18.1241C9.90411 18.1626 10.0957 18.1626 10.2259 18.1241C10.3933 18.0746 10.5059 17.9781 10.7308 17.7847C12.2964 16.4387 15.8333 12.9282 15.8333 8.68288C15.8333 7.07628 15.2187 5.53529 14.1248 4.39926C13.0308 3.26322 11.5472 2.625 10.0001 2.625C8.45299 2.625 6.96919 3.26332 5.87523 4.39935C4.78127 5.53539 4.16669 7.0759 4.16669 8.6825Z" stroke="white" stroke-width="2" stroke-linecap="round" stroke-linejoin="round"/>
<path d="M8.33335 7.875C8.33335 8.8415 9.07955 9.625 10 9.625C10.9205 9.625 11.6667 8.8415 11.6667 7.875C11.6667 6.9085 10.9205 6.125 10 6.125C9.07955 6.125 8.33335 6.9085 8.33335 7.875Z" stroke="white" stroke-width="2" stroke-linecap="round" stroke-linejoin="round"/>
</svg>
